<?xml version="1.0" encoding="UTF-8" standalone="no"?>
<!DOCTYPE svg PUBLIC "-//W3C//DTD SVG 1.1//EN" "http://www.w3.org/Graphics/SVG/1.1/DTD/svg11.dtd">
<svg width="100%" height="100%" viewBox="0 0 518 407" version="1.1" xmlns="http://www.w3.org/2000/svg" xmlns:xlink="http://www.w3.org/1999/xlink" xml:space="preserve" xmlns:serif="http://www.serif.com/" style="fill-rule:evenodd;clip-rule:evenodd;stroke-linejoin:round;stroke-miterlimit:2;">
    <g transform="matrix(1,0,0,1,-253.245643,-308.693005)">
        <g transform="matrix(15.752474,0,-0,15.752474,269.374077,87.715906)">
            <g transform="matrix(1.173305,0,0,1.173305,-242.369982,-494.380096)">
                <path d="M209.698,433.313L217.519,433.313L221.419,437.313L229.698,437.313C231.907,437.313 233.698,439.104 233.698,441.313L233.698,451.313C233.698,453.522 231.907,455.313 229.698,455.313L209.698,455.313C207.489,455.313 205.698,453.522 205.698,451.313L205.698,437.313C205.698,435.104 207.489,433.313 209.698,433.313Z" style="fill:rgb(35,154,248);"/>
            </g>
            <g transform="matrix(0.531663,-0,0,0.531663,9.022451,22.225657)">
                <path d="M18.6,13C19.3,12.2 19.8,11.1 19.9,9.9C22.2,9.5 24,7.4 24,5C24,3.6 23.5,2.4 22.5,1.4L21.4,0.4L20.8,1.8C20.5,2.5 19.8,3 19,3C18.2,3 17.5,2.5 17.1,1.8L16.5,0.4L15.4,1.4C14.4,2.4 13.9,3.6 13.9,5C13.9,7.4 15.6,9.4 17.8,9.9C17.6,10.9 17.1,11.7 16.6,12.1C15.2,11.5 13.6,11.1 11.9,11.1C10.2,11.1 8.6,11.5 7.2,12.1C6.7,11.7 6.2,10.9 6,9.9C8.3,9.4 10,7.4 10,5C10,3.6 9.5,2.4 8.5,1.4L7.4,0.4L6.9,1.8C6.5,2.5 5.8,3 5,3C4.2,3 3.5,2.5 3.1,1.8L2.6,0.4L1.5,1.4C0.5,2.4 0,3.6 0,5C0,7.4 1.8,9.5 4.1,9.9C4.3,11.1 4.8,12.2 5.4,13C2.9,14.5 1.4,16.2 1.2,16.3C0.9,16.7 0.9,17.3 1.2,17.6C1.3,17.7 2.3,18.8 4,20C3.2,21 3,22.2 3,23C3,23.6 3.4,24 4,24C4.6,24 5,23.6 5,23C5,23 5,21.7 5.7,21.2C7.5,22.2 9.6,23 12,23C14.4,23 16.5,22.2 18.3,21.2C19,21.7 19,23 19,23C19,23.6 19.4,24 20,24C20.6,24 21,23.6 21,23C21,22.2 20.7,21 20,20.1C21.6,18.9 22.7,17.8 22.8,17.7C23.1,17.3 23.1,16.7 22.8,16.4C22.6,16.2 21,14.5 18.6,13Z" style="fill:white;fill-rule:nonzero;"/>
            </g>
        </g>
    </g>
</svg>
